<svg width="1200" height="720" viewBox="0 0 1200 720" fill="none" xmlns="http://www.w3.org/2000/svg">
  <rect width="1200" height="720" rx="48" fill="#020617"/>
  <rect width="1200" height="720" rx="48" fill="url(#bg)"/>
  <circle cx="988" cy="154" r="178" fill="#22D3EE" fill-opacity="0.16"/>
  <rect x="82" y="84" width="1036" height="552" rx="36" fill="#0F172A" fill-opacity="0.88" stroke="#1E293B"/>
  <rect x="126" y="126" width="948" height="80" rx="24" fill="#082F49" stroke="#155E75"/>
  <rect x="162" y="156" width="164" height="16" rx="8" fill="#CFFAFE"/>
  <rect x="126" y="242" width="260" height="348" rx="30" fill="#020617" stroke="#1E293B"/>
  <rect x="162" y="278" width="114" height="14" rx="7" fill="#E2E8F0"/>
  <rect x="162" y="310" width="170" height="12" rx="6" fill="#94A3B8" fill-opacity="0.72"/>
  <rect x="162" y="352" width="188" height="52" rx="22" fill="#082F49" stroke="#155E75"/>
  <rect x="162" y="428" width="188" height="52" rx="22" fill="#0B1120" stroke="#1E293B"/>
  <rect x="162" y="504" width="188" height="52" rx="22" fill="#0B1120" stroke="#1E293B"/>
  <rect x="424" y="242" width="650" height="348" rx="30" fill="#020617" stroke="#1E293B"/>
  <rect x="460" y="278" width="248" height="18" rx="9" fill="#E2E8F0"/>
  <rect x="460" y="312" width="164" height="12" rx="6" fill="#94A3B8" fill-opacity="0.76"/>
  <rect x="460" y="356" width="574" height="174" rx="26" fill="#0F172A" stroke="#164E63"/>
  <rect x="500" y="396" width="144" height="18" rx="9" fill="#67E8F9" fill-opacity="0.78"/>
  <rect x="680" y="396" width="120" height="18" rx="9" fill="#67E8F9" fill-opacity="0.52"/>
  <rect x="836" y="396" width="158" height="18" rx="9" fill="#67E8F9" fill-opacity="0.3"/>
  <rect x="500" y="444" width="468" height="22" rx="11" fill="#E2E8F0"/>
  <rect x="500" y="484" width="422" height="14" rx="7" fill="#94A3B8" fill-opacity="0.7"/>
  <defs>
    <linearGradient id="bg" x1="90" y1="72" x2="1110" y2="676" gradientUnits="userSpaceOnUse">
      <stop stop-color="#0F172A"/>
      <stop offset="1" stop-color="#020617"/>
    </linearGradient>
  </defs>
</svg>
