<svg width="1200" height="720" viewBox="0 0 1200 720" fill="none" xmlns="http://www.w3.org/2000/svg">
  <rect width="1200" height="720" rx="48" fill="#020617"/>
  <rect width="1200" height="720" rx="48" fill="url(#bg)"/>
  <circle cx="978" cy="142" r="184" fill="#38BDF8" fill-opacity="0.17"/>
  <circle cx="208" cy="606" r="220" fill="#22D3EE" fill-opacity="0.14"/>
  <rect x="78" y="82" width="1044" height="556" rx="38" fill="#0F172A" fill-opacity="0.88" stroke="#1E293B"/>
  <rect x="126" y="126" width="310" height="140" rx="28" fill="#082F49" stroke="#155E75"/>
  <rect x="156" y="160" width="132" height="16" rx="8" fill="#CFFAFE"/>
  <rect x="156" y="192" width="210" height="18" rx="9" fill="#E2E8F0"/>
  <rect x="156" y="224" width="160" height="12" rx="6" fill="#94A3B8" fill-opacity="0.8"/>
  <rect x="470" y="126" width="602" height="140" rx="28" fill="#020617" stroke="#1E3A8A"/>
  <rect x="506" y="162" width="280" height="18" rx="9" fill="#E2E8F0"/>
  <rect x="506" y="196" width="520" height="12" rx="6" fill="#94A3B8" fill-opacity="0.75"/>
  <rect x="506" y="224" width="190" height="14" rx="7" fill="#67E8F9" fill-opacity="0.78"/>
  <rect x="126" y="302" width="946" height="288" rx="32" fill="#0B1120" stroke="#1E293B"/>
  <rect x="168" y="342" width="308" height="208" rx="26" fill="#0F172A" stroke="#164E63"/>
  <rect x="204" y="376" width="110" height="110" rx="24" fill="#22D3EE" fill-opacity="0.2"/>
  <path d="M258 396L288 456H228L258 396Z" fill="#67E8F9"/>
  <rect x="338" y="388" width="100" height="14" rx="7" fill="#E2E8F0"/>
  <rect x="338" y="418" width="82" height="12" rx="6" fill="#94A3B8" fill-opacity="0.8"/>
  <rect x="338" y="454" width="68" height="40" rx="20" fill="#082F49" stroke="#155E75"/>
  <rect x="516" y="342" width="516" height="88" rx="24" fill="#082F49" stroke="#155E75"/>
  <rect x="554" y="370" width="180" height="16" rx="8" fill="#CFFAFE"/>
  <rect x="786" y="364" width="208" height="28" rx="14" fill="#22D3EE" fill-opacity="0.26"/>
  <rect x="516" y="454" width="516" height="96" rx="24" fill="#020617" stroke="#1E293B"/>
  <rect x="552" y="484" width="276" height="14" rx="7" fill="#E2E8F0"/>
  <rect x="552" y="514" width="420" height="12" rx="6" fill="#94A3B8" fill-opacity="0.72"/>
  <defs>
    <linearGradient id="bg" x1="84" y1="74" x2="1120" y2="668" gradientUnits="userSpaceOnUse">
      <stop stop-color="#0F172A"/>
      <stop offset="1" stop-color="#020617"/>
    </linearGradient>
  </defs>
</svg>
