<svg width="1200" height="720" viewBox="0 0 1200 720" fill="none" xmlns="http://www.w3.org/2000/svg">
  <rect width="1200" height="720" rx="48" fill="#020617"/>
  <rect width="1200" height="720" rx="48" fill="url(#bg)"/>
  <circle cx="190" cy="136" r="166" fill="#22D3EE" fill-opacity="0.16"/>
  <circle cx="1004" cy="620" r="236" fill="#3B82F6" fill-opacity="0.14"/>
  <rect x="80" y="84" width="1040" height="552" rx="36" fill="#0F172A" fill-opacity="0.88" stroke="#1E293B"/>
  <rect x="126" y="128" width="948" height="66" rx="24" fill="#082F49" stroke="#155E75"/>
  <rect x="160" y="152" width="168" height="16" rx="8" fill="#CFFAFE"/>
  <rect x="848" y="148" width="74" height="24" rx="12" fill="#67E8F9" fill-opacity="0.24"/>
  <rect x="940" y="148" width="92" height="24" rx="12" fill="#67E8F9"/>
  <rect x="126" y="226" width="512" height="364" rx="30" fill="#020617" stroke="#1E293B"/>
  <rect x="166" y="272" width="180" height="16" rx="8" fill="#67E8F9" fill-opacity="0.72"/>
  <rect x="166" y="308" width="356" height="24" rx="12" fill="#E2E8F0"/>
  <rect x="166" y="350" width="304" height="14" rx="7" fill="#94A3B8" fill-opacity="0.76"/>
  <rect x="166" y="380" width="274" height="14" rx="7" fill="#94A3B8" fill-opacity="0.66"/>
  <rect x="166" y="434" width="166" height="48" rx="24" fill="#22D3EE"/>
  <rect x="356" y="434" width="148" height="48" rx="24" fill="#082F49" stroke="#155E75"/>
  <rect x="678" y="226" width="396" height="364" rx="30" fill="#0B1120" stroke="#1E293B"/>
  <rect x="716" y="266" width="320" height="170" rx="24" fill="url(#hero)"/>
  <rect x="716" y="470" width="150" height="18" rx="9" fill="#E2E8F0"/>
  <rect x="716" y="504" width="250" height="12" rx="6" fill="#94A3B8" fill-opacity="0.72"/>
  <defs>
    <linearGradient id="bg" x1="90" y1="74" x2="1106" y2="682" gradientUnits="userSpaceOnUse">
      <stop stop-color="#0F172A"/>
      <stop offset="1" stop-color="#020617"/>
    </linearGradient>
    <linearGradient id="hero" x1="716" y1="266" x2="1036" y2="436" gradientUnits="userSpaceOnUse">
      <stop stop-color="#22D3EE"/>
      <stop offset="1" stop-color="#1D4ED8"/>
    </linearGradient>
  </defs>
</svg>
