<svg width="1200" height="720" viewBox="0 0 1200 720" fill="none" xmlns="http://www.w3.org/2000/svg">
  <rect width="1200" height="720" rx="48" fill="#020617"/>
  <rect width="1200" height="720" rx="48" fill="url(#bg)"/>
  <circle cx="211" cy="172" r="170" fill="#22D3EE" fill-opacity="0.18"/>
  <circle cx="1018" cy="612" r="216" fill="#2563EB" fill-opacity="0.16"/>
  <rect x="80" y="84" width="1040" height="552" rx="36" fill="#0F172A" fill-opacity="0.86" stroke="#1E293B"/>
  <rect x="128" y="128" width="356" height="328" rx="28" fill="#020617" stroke="#164E63"/>
  <rect x="156" y="156" width="164" height="18" rx="9" fill="#67E8F9" fill-opacity="0.6"/>
  <rect x="156" y="196" width="240" height="20" rx="10" fill="#E2E8F0" fill-opacity="0.9"/>
  <rect x="156" y="232" width="202" height="12" rx="6" fill="#94A3B8" fill-opacity="0.7"/>
  <rect x="156" y="282" width="300" height="122" rx="24" fill="url(#panel)"/>
  <rect x="576" y="136" width="482" height="64" rx="22" fill="#082F49" stroke="#155E75"/>
  <rect x="608" y="158" width="174" height="16" rx="8" fill="#CFFAFE"/>
  <rect x="816" y="156" width="204" height="20" rx="10" fill="#67E8F9" fill-opacity="0.38"/>
  <rect x="576" y="232" width="482" height="160" rx="28" fill="#020617" stroke="#1E3A8A"/>
  <rect x="612" y="268" width="240" height="18" rx="9" fill="#E2E8F0" fill-opacity="0.92"/>
  <rect x="612" y="304" width="188" height="14" rx="7" fill="#94A3B8" fill-opacity="0.78"/>
  <rect x="612" y="346" width="168" height="14" rx="7" fill="#22D3EE" fill-opacity="0.72"/>
  <path d="M310 336C310 303.968 335.968 278 368 278C400.032 278 426 303.968 426 336V394H310V336Z" fill="#67E8F9" fill-opacity="0.16"/>
  <rect x="330" y="330" width="76" height="112" rx="20" fill="#0F172A" stroke="#67E8F9" stroke-width="2"/>
  <circle cx="368" cy="372" r="16" fill="#67E8F9"/>
  <rect x="362" y="388" width="12" height="26" rx="6" fill="#67E8F9"/>
  <rect x="128" y="496" width="930" height="96" rx="28" fill="#0B1120" stroke="#1E293B"/>
  <rect x="168" y="528" width="240" height="16" rx="8" fill="#E2E8F0"/>
  <rect x="168" y="556" width="180" height="12" rx="6" fill="#94A3B8" fill-opacity="0.72"/>
  <rect x="866" y="522" width="156" height="44" rx="22" fill="#22D3EE"/>
  <defs>
    <linearGradient id="bg" x1="85" y1="68" x2="1120" y2="680" gradientUnits="userSpaceOnUse">
      <stop stop-color="#0F172A"/>
      <stop offset="1" stop-color="#020617"/>
    </linearGradient>
    <linearGradient id="panel" x1="156" y1="282" x2="456" y2="404" gradientUnits="userSpaceOnUse">
      <stop stop-color="#155E75"/>
      <stop offset="1" stop-color="#0F172A"/>
    </linearGradient>
  </defs>
</svg>
